<svg width="43" height="79" viewBox="0 0 43 79" fill="none" xmlns="http://www.w3.org/2000/svg">
<path id="arrow" fill-rule="evenodd" clip-rule="evenodd" d="M24.0677 31.245C27.6855 28.1782 35.5456 23.0984 38.4252 29.7925C40.2569 34.0523 39.1283 40.5603 35.1615 43.3179C30.1896 46.7738 25.2687 42.0813 22.8583 37.9177C22.164 36.7193 21.5654 35.459 21.0362 34.1604C21.9906 33.1326 22.9967 32.153 24.0677 31.245ZM15.8232 0.219959C13.7845 10.7391 14.0436 22.5881 17.5758 32.9446C15.9927 34.838 14.6363 36.7515 13.5821 38.426C7.45848 48.1546 3.86839 61.0656 4.40642 72.5836C4.46564 73.8423 5.935 74.2517 6.82264 73.7182C6.36467 74.0718 5.90221 74.4199 5.43525 74.7624C4.59121 73.509 3.97073 72.1631 3.54962 70.6502C3.29261 69.7256 3.28551 68.671 2.9622 67.7824C2.76976 67.2531 2.3684 67.2665 2.23722 66.6612C2.19541 66.4681 1.91988 66.3723 1.8253 66.5894C1.56679 67.1838 1.05403 67.376 0.820422 67.9814C0.452008 68.9349 0.686158 70.6987 0.84303 71.6591C1.2337 74.051 2.25821 76.2547 3.64878 78.2221C4.22984 79.0437 5.29093 79.1136 6.10338 78.6275C8.09528 77.4363 9.9183 75.9623 11.6216 74.3914C13.0969 73.0299 14.861 71.5786 15.6324 69.6936C16.238 68.216 14.6245 66.8762 13.2816 67.7431C11.6428 68.8007 10.4765 70.5539 9.03657 71.8756C8.41932 72.4423 7.77574 72.9684 7.12233 73.4815C7.30251 73.2863 7.43075 73.0316 7.47203 72.7121C8.80521 62.3879 9.79463 52.54 14.7391 43.1418C15.9526 40.833 17.37 38.6187 18.985 36.5624C19.0803 36.7817 19.1669 37.0072 19.2656 37.2262C22.5231 44.4185 31.2548 52.0845 38.5375 44.646C43.7075 39.367 44.8261 25.5481 35.7713 23.4423C29.9859 22.0968 24.2407 25.8805 19.7532 30.523C18.7687 27.2862 18.1029 23.9249 17.5032 20.7107C16.252 14.0106 15.9561 7.09763 16.2502 0.296366C16.2616 0.0266818 15.8779 -0.063025 15.8232 0.219959Z" fill="black"/>
</svg>
